<svg width="14" height="14" viewBox="0 0 14 14" fill="none" xmlns="http://www.w3.org/2000/svg">
<path d="M7 0C7.13261 0 7.25979 0.0526784 7.35355 0.146447C7.44732 0.240215 7.5 0.367392 7.5 0.5V1.5C7.5 1.63261 7.44732 1.75979 7.35355 1.85355C7.25979 1.94732 7.13261 2 7 2C6.86739 2 6.74021 1.94732 6.64645 1.85355C6.55268 1.75979 6.5 1.63261 6.5 1.5V0.5C6.5 0.367392 6.55268 0.240215 6.64645 0.146447C6.74021 0.0526784 6.86739 0 7 0ZM7 10C7.79565 10 8.55871 9.68393 9.12132 9.12132C9.68393 8.55871 10 7.79565 10 7C10 6.20435 9.68393 5.44129 9.12132 4.87868C8.55871 4.31607 7.79565 4 7 4C6.20435 4 5.44129 4.31607 4.87868 4.87868C4.31607 5.44129 4 6.20435 4 7C4 7.79565 4.31607 8.55871 4.87868 9.12132C5.44129 9.68393 6.20435 10 7 10ZM7 9C6.46957 9 5.96086 8.78929 5.58579 8.41421C5.21071 8.03914 5 7.53043 5 7C5 6.46957 5.21071 5.96086 5.58579 5.58579C5.96086 5.21071 6.46957 5 7 5C7.53043 5 8.03914 5.21071 8.41421 5.58579C8.78929 5.96086 9 6.46957 9 7C9 7.53043 8.78929 8.03914 8.41421 8.41421C8.03914 8.78929 7.53043 9 7 9ZM13.5 7.5C13.6326 7.5 13.7598 7.44732 13.8536 7.35355C13.9473 7.25979 14 7.13261 14 7C14 6.86739 13.9473 6.74021 13.8536 6.64645C13.7598 6.55268 13.6326 6.5 13.5 6.5H12.5C12.3674 6.5 12.2402 6.55268 12.1464 6.64645C12.0527 6.74021 12 6.86739 12 7C12 7.13261 12.0527 7.25979 12.1464 7.35355C12.2402 7.44732 12.3674 7.5 12.5 7.5H13.5ZM7 12C7.13261 12 7.25979 12.0527 7.35355 12.1464C7.44732 12.2402 7.5 12.3674 7.5 12.5V13.5C7.5 13.6326 7.44732 13.7598 7.35355 13.8536C7.25979 13.9473 7.13261 14 7 14C6.86739 14 6.74021 13.9473 6.64645 13.8536C6.55268 13.7598 6.5 13.6326 6.5 13.5V12.5C6.5 12.3674 6.55268 12.2402 6.64645 12.1464C6.74021 12.0527 6.86739 12 7 12ZM1.5 7.5C1.63261 7.5 1.75979 7.44732 1.85355 7.35355C1.94732 7.25979 2 7.13261 2 7C2 6.86739 1.94732 6.74021 1.85355 6.64645C1.75979 6.55268 1.63261 6.5 1.5 6.5H0.5C0.367392 6.5 0.240215 6.55268 0.146447 6.64645C0.0526784 6.74021 0 6.86739 0 7C0 7.13261 0.0526784 7.25979 0.146447 7.35355C0.240215 7.44732 0.367392 7.5 0.5 7.5H1.5ZM2.146 2.146C2.19245 2.09944 2.24762 2.06249 2.30837 2.03729C2.36911 2.01208 2.43423 1.99911 2.5 1.99911C2.56577 1.99911 2.63089 2.01208 2.69163 2.03729C2.75238 2.06249 2.80755 2.09944 2.854 2.146L3.854 3.146C3.90049 3.19249 3.93736 3.24768 3.96252 3.30842C3.98768 3.36916 4.00063 3.43426 4.00063 3.5C4.00063 3.56574 3.98768 3.63084 3.96252 3.69158C3.93736 3.75232 3.90049 3.80751 3.854 3.854C3.80751 3.90049 3.75232 3.93736 3.69158 3.96252C3.63084 3.98768 3.56574 4.00063 3.5 4.00063C3.43426 4.00063 3.36916 3.98768 3.30842 3.96252C3.24768 3.93736 3.19249 3.90049 3.146 3.854L2.146 2.854C2.09944 2.80755 2.06249 2.75238 2.03729 2.69163C2.01208 2.63089 1.99911 2.56577 1.99911 2.5C1.99911 2.43423 2.01208 2.36911 2.03729 2.30837C2.06249 2.24762 2.09944 2.19245 2.146 2.146ZM2.854 11.854C2.80758 11.9005 2.75245 11.9374 2.69177 11.9626C2.6311 11.9877 2.56605 12.0007 2.50035 12.0008C2.43466 12.0008 2.36959 11.9879 2.30888 11.9628C2.24816 11.9377 2.19299 11.9009 2.1465 11.8545C2.10001 11.8081 2.06312 11.753 2.03794 11.6923C2.01275 11.6316 1.99977 11.5666 1.99972 11.5009C1.99968 11.4352 2.01257 11.3701 2.03767 11.3094C2.06277 11.2487 2.09958 11.1935 2.146 11.147L3.146 10.147C3.19242 10.1005 3.24755 10.0636 3.30823 10.0384C3.3689 10.0133 3.43395 10.0003 3.49965 10.0002C3.56534 10.0002 3.63041 10.0131 3.69112 10.0382C3.75184 10.0633 3.80701 10.1001 3.8535 10.1465C3.89999 10.1929 3.93688 10.248 3.96206 10.3087C3.98725 10.3694 4.00023 10.4344 4.00028 10.5001C4.00032 10.5658 3.98743 10.6309 3.96233 10.6916C3.93723 10.7523 3.90042 10.8075 3.854 10.854L2.854 11.854ZM11.854 2.146C11.8076 2.09944 11.7524 2.06249 11.6916 2.03729C11.6309 2.01208 11.5658 1.99911 11.5 1.99911C11.4342 1.99911 11.3691 2.01208 11.3084 2.03729C11.2476 2.06249 11.1924 2.09944 11.146 2.146L10.146 3.146C10.0521 3.23989 9.99937 3.36722 9.99937 3.5C9.99937 3.63278 10.0521 3.76011 10.146 3.854C10.2399 3.94789 10.3672 4.00063 10.5 4.00063C10.6328 4.00063 10.7601 3.94789 10.854 3.854L11.854 2.854C11.9006 2.80755 11.9375 2.75238 11.9627 2.69163C11.9879 2.63089 12.0009 2.56577 12.0009 2.5C12.0009 2.43423 11.9879 2.36911 11.9627 2.30837C11.9375 2.24762 11.9006 2.19245 11.854 2.146ZM11.146 11.854C11.2398 11.9479 11.367 12.0007 11.4996 12.0008C11.6323 12.0009 11.7596 11.9483 11.8535 11.8545C11.9474 11.7607 12.0002 11.6335 12.0003 11.5009C12.0004 11.3682 11.9478 11.2409 11.854 11.147L10.854 10.147C10.7602 10.0531 10.633 10.0003 10.5004 10.0002C10.3677 10.0001 10.2404 10.0527 10.1465 10.1465C10.0526 10.2403 9.99981 10.3675 9.99972 10.5001C9.99963 10.6328 10.0522 10.7601 10.146 10.854L11.146 11.854Z" fill="#626C7F"/>
</svg>
